# xmcd
#
# Track frame offsets: 
#        150
#        26363
#        53265
#        72283
#        85962
#
# Disc length: 1333 seconds
#
# Revision: 0
# Processed by: cddbd v1.5.2PL0 Copyright (c) Steve Scherf et al.
# Submitted via: ExactAudioCopyFreeDBPlugin 1.0
#
DISCID=31053305
DTITLE=Overkill - Last Man Standing
DYEAR=2018
DGENRE=Thrash Metal
TTITLE0=Last Man Standing
TTITLE1=Head Of A Pin
TTITLE2=Hello From The Gutter
TTITLE3=Sonic Reducer
TTITLE4=We Gotta Get Out Of This Place
EXTD=
EXTT0=
EXTT1=
EXTT2=
EXTT3=
EXTT4=
PLAYORDER=
